<?xml version="1.0" encoding="UTF-8" standalone="no"?>
<!DOCTYPE svg PUBLIC "-//W3C//DTD SVG 1.1//EN"
 "http://www.w3.org/Graphics/SVG/1.1/DTD/svg11.dtd">
<!-- Generated by graphviz version 2.44.1 (20200629.0846)
 -->
<!-- Pages: 1 -->
<svg width="327pt" height="332pt"
 viewBox="0.00 0.00 326.74 332.00" xmlns="http://www.w3.org/2000/svg" xmlns:xlink="http://www.w3.org/1999/xlink">
<g id="graph0" class="graph" transform="scale(1 1) rotate(0) translate(4 328)">
<polygon fill="white" stroke="transparent" points="-4,4 -4,-328 322.74,-328 322.74,4 -4,4"/>
<!-- bright white -->
<g id="node1" class="node">
<title>bright white</title>
<ellipse fill="none" stroke="black" cx="126.95" cy="-90" rx="53.89" ry="18"/>
<text text-anchor="middle" x="126.95" y="-86.3" font-family="Times,serif" font-size="14.00">bright white</text>
</g>
<!-- light red -->
<g id="node2" class="node">
<title>light red</title>
<ellipse fill="none" stroke="black" cx="136.95" cy="-18" rx="40.09" ry="18"/>
<text text-anchor="middle" x="136.95" y="-14.3" font-family="Times,serif" font-size="14.00">light red</text>
</g>
<!-- bright white&#45;&gt;light red -->
<g id="edge1" class="edge">
<title>bright white&#45;&gt;light red</title>
<path fill="none" stroke="black" d="M129.42,-71.7C130.52,-63.98 131.84,-54.71 133.07,-46.11"/>
<polygon fill="black" stroke="black" points="136.55,-46.5 134.5,-36.1 129.62,-45.51 136.55,-46.5"/>
</g>
<!-- dark orange -->
<g id="node3" class="node">
<title>dark orange</title>
<ellipse fill="none" stroke="black" cx="252.95" cy="-18" rx="52.79" ry="18"/>
<text text-anchor="middle" x="252.95" y="-14.3" font-family="Times,serif" font-size="14.00">dark orange</text>
</g>
<!-- bright white&#45;&gt;dark orange -->
<g id="edge2" class="edge">
<title>bright white&#45;&gt;dark orange</title>
<path fill="none" stroke="black" d="M153.67,-74.15C172.21,-63.85 197.11,-50.02 217.34,-38.78"/>
<polygon fill="black" stroke="black" points="219.22,-41.74 226.26,-33.82 215.82,-35.62 219.22,-41.74"/>
</g>
<!-- muted yellow -->
<g id="node4" class="node">
<title>muted yellow</title>
<ellipse fill="none" stroke="black" cx="258.95" cy="-90" rx="59.59" ry="18"/>
<text text-anchor="middle" x="258.95" y="-86.3" font-family="Times,serif" font-size="14.00">muted yellow</text>
</g>
<!-- muted yellow&#45;&gt;light red -->
<g id="edge3" class="edge">
<title>muted yellow&#45;&gt;light red</title>
<path fill="none" stroke="black" d="M232.47,-73.81C214.08,-63.26 189.45,-49.12 169.8,-37.85"/>
<polygon fill="black" stroke="black" points="171.3,-34.68 160.88,-32.74 167.82,-40.75 171.3,-34.68"/>
</g>
<!-- muted yellow&#45;&gt;dark orange -->
<g id="edge4" class="edge">
<title>muted yellow&#45;&gt;dark orange</title>
<path fill="none" stroke="black" d="M257.46,-71.7C256.8,-63.98 256.01,-54.71 255.27,-46.11"/>
<polygon fill="black" stroke="black" points="258.75,-45.77 254.41,-36.1 251.78,-46.37 258.75,-45.77"/>
</g>
<!-- shiny gold -->
<g id="node5" class="node">
<title>shiny gold</title>
<ellipse fill="none" stroke="black" cx="149.95" cy="-162" rx="48.19" ry="18"/>
<text text-anchor="middle" x="149.95" y="-158.3" font-family="Times,serif" font-size="14.00">shiny gold</text>
</g>
<!-- shiny gold&#45;&gt;bright white -->
<g id="edge5" class="edge">
<title>shiny gold&#45;&gt;bright white</title>
<path fill="none" stroke="black" d="M144.38,-144.05C141.79,-136.18 138.65,-126.62 135.75,-117.79"/>
<polygon fill="black" stroke="black" points="139.07,-116.68 132.62,-108.28 132.42,-118.87 139.07,-116.68"/>
</g>
<!-- shiny gold&#45;&gt;muted yellow -->
<g id="edge6" class="edge">
<title>shiny gold&#45;&gt;muted yellow</title>
<path fill="none" stroke="black" d="M173.06,-146.15C188.49,-136.24 209.02,-123.06 226.13,-112.07"/>
<polygon fill="black" stroke="black" points="228.21,-114.9 234.73,-106.55 224.42,-109.01 228.21,-114.9"/>
</g>
<!-- faded blue -->
<g id="node6" class="node">
<title>faded blue</title>
<ellipse fill="none" stroke="black" cx="173.95" cy="-306" rx="48.19" ry="18"/>
<text text-anchor="middle" x="173.95" y="-302.3" font-family="Times,serif" font-size="14.00">faded blue</text>
</g>
<!-- faded blue&#45;&gt;muted yellow -->
<g id="edge7" class="edge">
<title>faded blue&#45;&gt;muted yellow</title>
<path fill="none" stroke="black" d="M200.11,-290.84C214.33,-281.7 230.83,-268.45 239.95,-252 263.33,-209.79 263.91,-151.91 261.75,-118.27"/>
<polygon fill="black" stroke="black" points="265.23,-117.96 260.97,-108.26 258.26,-118.5 265.23,-117.96"/>
</g>
<!-- dark olive -->
<g id="node7" class="node">
<title>dark olive</title>
<ellipse fill="none" stroke="black" cx="52.95" cy="-234" rx="46.29" ry="18"/>
<text text-anchor="middle" x="52.95" y="-230.3" font-family="Times,serif" font-size="14.00">dark olive</text>
</g>
<!-- faded blue&#45;&gt;dark olive -->
<g id="edge8" class="edge">
<title>faded blue&#45;&gt;dark olive</title>
<path fill="none" stroke="black" d="M148.87,-290.5C130.75,-280.01 106.06,-265.73 86.28,-254.28"/>
<polygon fill="black" stroke="black" points="87.98,-251.22 77.57,-249.25 84.47,-257.28 87.98,-251.22"/>
</g>
<!-- vibrant plum -->
<g id="node8" class="node">
<title>vibrant plum</title>
<ellipse fill="none" stroke="black" cx="173.95" cy="-234" rx="56.59" ry="18"/>
<text text-anchor="middle" x="173.95" y="-230.3" font-family="Times,serif" font-size="14.00">vibrant plum</text>
</g>
<!-- faded blue&#45;&gt;vibrant plum -->
<g id="edge9" class="edge">
<title>faded blue&#45;&gt;vibrant plum</title>
<path fill="none" stroke="black" d="M173.95,-287.7C173.95,-279.98 173.95,-270.71 173.95,-262.11"/>
<polygon fill="black" stroke="black" points="177.45,-262.1 173.95,-252.1 170.45,-262.1 177.45,-262.1"/>
</g>
<!-- dark olive&#45;&gt;shiny gold -->
<g id="edge10" class="edge">
<title>dark olive&#45;&gt;shiny gold</title>
<path fill="none" stroke="black" d="M73.99,-217.81C87.5,-208.06 105.24,-195.26 120.18,-184.48"/>
<polygon fill="black" stroke="black" points="122.54,-187.09 128.6,-178.4 118.45,-181.41 122.54,-187.09"/>
</g>
<!-- vibrant plum&#45;&gt;shiny gold -->
<g id="edge11" class="edge">
<title>vibrant plum&#45;&gt;shiny gold</title>
<path fill="none" stroke="black" d="M168.14,-216.05C165.43,-208.18 162.16,-198.62 159.13,-189.79"/>
<polygon fill="black" stroke="black" points="162.42,-188.6 155.87,-180.28 155.8,-190.87 162.42,-188.6"/>
</g>
<!-- dotted black -->
<g id="node9" class="node">
<title>dotted black</title>
<ellipse fill="none" stroke="black" cx="53.95" cy="-306" rx="53.89" ry="18"/>
<text text-anchor="middle" x="53.95" y="-302.3" font-family="Times,serif" font-size="14.00">dotted black</text>
</g>
<!-- dotted black&#45;&gt;dark olive -->
<g id="edge12" class="edge">
<title>dotted black&#45;&gt;dark olive</title>
<path fill="none" stroke="black" d="M53.7,-287.7C53.59,-279.98 53.46,-270.71 53.33,-262.11"/>
<polygon fill="black" stroke="black" points="56.83,-262.05 53.19,-252.1 49.83,-262.15 56.83,-262.05"/>
</g>
<!-- dotted black&#45;&gt;vibrant plum -->
<g id="edge13" class="edge">
<title>dotted black&#45;&gt;vibrant plum</title>
<path fill="none" stroke="black" d="M79.69,-289.98C97.05,-279.86 120.16,-266.37 139.16,-255.29"/>
<polygon fill="black" stroke="black" points="140.96,-258.3 147.83,-250.23 137.43,-252.25 140.96,-258.3"/>
</g>
</g>
</svg>
